<?xml version="1.0" standalone="no"?>
<!DOCTYPE svg PUBLIC "-//W3C//DTD SVG 20010904//EN"
 "http://www.w3.org/TR/2001/REC-SVG-20010904/DTD/svg10.dtd">
<svg version="1.0" xmlns="http://www.w3.org/2000/svg"
 width="174.000000pt" height="142.000000pt" viewBox="0 0 174.000000 142.000000"
 preserveAspectRatio="xMidYMid meet">

<g transform="translate(0.000000,142.000000) scale(0.100000,-0.100000)"
fill="#000000" stroke="none">
<path d="M945 1079 c-33 -11 -64 -25 -69 -30 -15 -14 6 -11 47 6 72 30 80 10
10 -25 -57 -28 -35 -41 28 -16 59 24 82 19 27 -6 -27 -11 -48 -24 -48 -29 0
-12 12 -11 51 5 57 24 150 38 166 25 28 -24 9 -79 -27 -79 -20 0 -57 -26 -49
-34 11 -12 152 15 184 34 39 24 55 58 55 115 0 48 -5 52 -34 30 -27 -20 -76
-19 -166 5 -93 24 -101 24 -175 -1z"/>
<path d="M439 1075 c-23 -12 -59 -55 -59 -70 0 -3 13 -5 29 -5 35 0 74 -31
127 -100 21 -28 55 -61 76 -75 43 -29 68 -34 48 -10 -19 23 -7 27 50 17 66
-12 52 2 -19 20 -72 17 -83 42 -15 34 l49 -6 -40 13 c-22 8 -55 21 -72 31 -31
16 -33 16 -33 -1 -1 -17 -2 -16 -15 1 -17 22 -20 73 -6 95 9 13 37 12 89 -4
46 -15 20 13 -42 44 -69 34 -124 39 -167 16z"/>
<path d="M1000 924 c0 -3 14 -23 32 -45 41 -51 27 -65 -18 -17 -41 46 -56 30
-17 -19 53 -67 57 -78 10 -33 -58 54 -61 38 -7 -34 22 -29 40 -58 40 -64 0 -6
7 -18 16 -27 15 -14 15 -18 0 -40 -22 -33 -51 -31 -78 5 -12 17 -30 30 -39 30
-15 0 -13 -8 13 -57 48 -91 66 -112 108 -124 30 -9 49 -9 85 1 49 14 56 24 26
39 -30 17 -51 74 -51 143 0 86 -15 134 -61 196 -35 45 -59 65 -59 46z"/>
<path d="M807 745 c-13 -20 -43 -55 -66 -80 -34 -37 -45 -43 -64 -36 -30 11
-33 45 -8 77 22 29 27 54 11 54 -18 0 -111 -101 -126 -137 -19 -44 -10 -92 26
-134 l28 -34 15 37 c18 43 37 56 136 93 80 30 130 72 169 143 27 49 11 57 -18
10 -41 -71 -65 -77 -30 -8 12 23 19 44 17 46 -10 10 -36 -10 -47 -36 -12 -30
-40 -60 -40 -44 0 5 9 23 20 39 22 33 25 45 10 45 -5 0 -20 -16 -33 -35z"/>
<path d="M1093 255 c0 -33 2 -45 4 -27 2 18 2 45 0 60 -2 15 -4 0 -4 -33z"/>
<path d="M1393 255 c0 -33 2 -45 4 -27 2 18 2 45 0 60 -2 15 -4 0 -4 -33z"/>
<path d="M380 291 c0 -5 5 -13 10 -16 6 -3 10 -2 10 4 0 5 -4 13 -10 16 -5 3
-10 2 -10 -4z"/>
<path d="M1281 264 c0 -11 3 -14 6 -6 3 7 2 16 -1 19 -3 4 -6 -2 -5 -13z"/>
<path d="M1180 266 c0 -2 8 -10 18 -17 15 -13 16 -12 3 4 -13 16 -21 21 -21
13z"/>
</g>
</svg>
